<?xml version="1.0" encoding="UTF-8" standalone="no"?><!DOCTYPE svg PUBLIC "-//W3C//DTD SVG 1.1//EN" "http://www.w3.org/Graphics/SVG/1.1/DTD/svg11.dtd"><svg width="100%" height="100%" viewBox="0 0 246 246" version="1.1" xmlns="http://www.w3.org/2000/svg" xmlns:xlink="http://www.w3.org/1999/xlink" xml:space="preserve" xmlns:serif="http://www.serif.com/" style="fill-rule:evenodd;clip-rule:evenodd;stroke-linejoin:round;stroke-miterlimit:2;"><path d="M245.76,61.44c-0,-33.91 -27.53,-61.44 -61.44,-61.44l-122.88,0c-33.91,0 -61.44,27.53 -61.44,61.44l-0,122.88c-0,33.91 27.53,61.44 61.44,61.44l122.88,0c33.91,0 61.44,-27.53 61.44,-61.44l-0,-122.88Z" style="fill:url(#_Linear1);"/><clipPath id="_clip2"><path d="M245.76,61.44c-0,-33.91 -27.53,-61.44 -61.44,-61.44l-122.88,0c-33.91,0 -61.44,27.53 -61.44,61.44l-0,122.88c-0,33.91 27.53,61.44 61.44,61.44l122.88,0c33.91,0 61.44,-27.53 61.44,-61.44l-0,-122.88Z"/></clipPath><g clip-path="url(#_clip2)"><path d="M309.149,-22.023l-409.465,200.042l11.491,24.223l409.465,-200.042l-11.491,-24.223Z" style="fill:#fff;fill-opacity:0.16;"/><path d="M287.54,-53.257l-409.464,200.043l5.279,11.128l409.465,-200.042l-5.28,-11.129Z" style="fill:#fff;fill-opacity:0.16;"/></g><path d="M233.899,67.37c0,-30.636 -24.873,-55.509 -55.509,-55.509l-111.02,-0c-30.636,-0 -55.509,24.873 -55.509,55.509l-0,111.02c-0,30.636 24.873,55.509 55.509,55.509l111.02,0c30.636,0 55.509,-24.873 55.509,-55.509l0,-111.02Z" style="fill:#030303;"/><rect x="82.92" y="146.268" width="36.612" height="37.154" style="fill:#00ff7e;"/><rect x="179.62" y="146.268" width="36.612" height="37.154" style="fill:#00ff7e;"/><defs><linearGradient id="_Linear1" x1="0" y1="0" x2="1" y2="0" gradientUnits="userSpaceOnUse" gradientTransform="matrix(1.4585e-14,241.717,-238.192,1.48009e-14,127.789,1.77636e-15)"><stop offset="0" style="stop-color:#1d1d1d;stop-opacity:1"/><stop offset="1" style="stop-color:#4d4d4d;stop-opacity:1"/></linearGradient></defs></svg>